<svg width="159" height="16" viewBox="0 0 159 16" fill="none" xmlns="http://www.w3.org/2000/svg">
<path d="M11.9168 7.52853C11.9168 10.0587 11.1977 11.9634 9.76158 13.2425C8.4314 14.4227 6.54102 15.0138 4.09251 15.0138C2.87843 15.0138 1.83954 14.9579 0.969727 14.8461V1.02136C2.10436 0.82789 3.32658 0.729004 4.64658 0.729004C6.97899 0.729004 8.73695 1.26428 9.9225 2.33484C11.2507 3.54512 11.9168 5.27564 11.9168 7.52853ZM9.66584 7.59088C9.66584 5.95065 9.25436 4.69307 8.4314 3.81599C7.60843 2.94105 6.40658 2.50251 4.8238 2.50251C4.15158 2.50251 3.57917 2.54981 3.10454 2.64869V13.1586C3.36732 13.2016 3.84806 13.221 4.54676 13.221C6.18047 13.221 7.4414 12.7416 8.32955 11.7828C9.21769 10.824 9.66584 9.42673 9.66584 7.59088Z" fill="white"/>
<path d="M23.852 9.73052C23.852 11.2891 23.4303 12.566 22.587 13.5678C21.7029 14.5976 20.5317 15.1113 19.0691 15.1113C17.6594 15.1113 16.537 14.6191 15.6998 13.6302C14.8646 12.6434 14.447 11.3987 14.447 9.8982C14.447 8.32888 14.8768 7.04118 15.7405 6.04154C16.6042 5.04191 17.7654 4.54102 19.2279 4.54102C20.6376 4.54102 21.7702 5.03331 22.6278 6.02004C23.4426 6.97883 23.852 8.21709 23.852 9.73052ZM21.6378 9.80361C21.6378 8.86847 21.4463 8.06661 21.0654 7.39804C20.6172 6.58973 19.9796 6.18558 19.1505 6.18558C18.293 6.18558 17.6411 6.58973 17.1929 7.39804C16.81 8.06661 16.6205 8.88137 16.6205 9.84446C16.6205 10.7796 16.812 11.5815 17.1929 12.25C17.6554 13.0583 18.2991 13.4625 19.1302 13.4625C19.945 13.4625 20.5846 13.0519 21.045 12.2285C21.4402 11.5471 21.6378 10.7388 21.6378 9.80361Z" fill="white"/>
<path d="M39.8546 4.7478L36.85 14.8832H34.8944L33.6498 10.482C33.334 9.38333 33.0774 8.2911 32.8777 7.20747H32.839C32.6537 8.3212 32.397 9.41128 32.067 10.482L30.745 14.8832H28.767L25.9417 4.7478H28.1355L29.2213 9.56608C29.484 10.7056 29.7 11.7914 29.8731 12.8191H29.9118C30.0707 11.972 30.3335 10.8927 30.7042 9.58758L32.067 4.74995H33.8066L35.1124 9.48438C35.4281 10.639 35.6848 11.7505 35.8824 12.8213H35.9415C36.0861 11.7785 36.304 10.6669 36.5933 9.48438L37.7585 4.74995H39.8546V4.7478Z" fill="white"/>
<path d="M50.9216 14.8815H48.7868V9.07684C48.7868 7.28815 48.1431 6.39381 46.8517 6.39381C46.2181 6.39381 45.7068 6.63889 45.3096 7.13121C44.9165 7.62353 44.7169 8.20399 44.7169 8.8683V14.8793H42.582V7.64288C42.582 6.75284 42.5556 5.78755 42.5046 4.74272H44.3807L44.4806 6.32717H44.5396C44.7882 5.83485 45.1589 5.42852 45.6457 5.10389C46.2243 4.72552 46.872 4.53418 47.5809 4.53418C48.4772 4.53418 49.2228 4.83946 49.8155 5.45217C50.5529 6.20247 50.9216 7.32255 50.9216 8.81026V14.8815Z" fill="white"/>
<path d="M56.8086 14.8812H54.6758V0.0952148H56.8086V14.8812Z" fill="white"/>
<path d="M69.3774 9.73052C69.3774 11.2891 68.9557 12.566 68.1124 13.5678C67.2283 14.5976 66.055 15.1113 64.5945 15.1113C63.1828 15.1113 62.0604 14.6191 61.2252 13.6302C60.39 12.6434 59.9724 11.3987 59.9724 9.8982C59.9724 8.32888 60.4022 7.04118 61.2659 6.04154C62.1296 5.04191 63.2907 4.54102 64.7513 4.54102C66.163 4.54102 67.2935 5.03331 68.1531 6.02004C68.968 6.97883 69.3774 8.21709 69.3774 9.73052ZM67.1611 9.80361C67.1611 8.86847 66.9696 8.06661 66.5887 7.39804C66.1426 6.58973 65.503 6.18558 64.6759 6.18558C63.8163 6.18558 63.1644 6.58973 62.7183 7.39804C62.3354 8.06661 62.1459 8.88137 62.1459 9.84446C62.1459 10.7796 62.3374 11.5815 62.7183 12.25C63.1807 13.0583 63.8245 13.4625 64.6556 13.4625C65.4704 13.4625 66.108 13.0519 66.5683 12.2285C66.9656 11.5471 67.1611 10.7388 67.1611 9.80361Z" fill="white"/>
<path d="M79.7095 14.8813H77.7926L77.6338 13.714H77.5747C76.9188 14.6449 75.9838 15.1113 74.7697 15.1113C73.8632 15.1113 73.1299 14.8039 72.5778 14.1934C72.0767 13.6388 71.8262 12.9487 71.8262 12.1296C71.8262 10.8914 72.3151 9.94764 73.2989 9.29412C74.2808 8.64059 75.6619 8.32028 77.4402 8.33533V8.14615C77.4402 6.81115 76.7762 6.14473 75.446 6.14473C74.4988 6.14473 73.6636 6.39625 72.9425 6.895L72.5086 5.41596C73.4008 4.83338 74.5028 4.54102 75.8025 4.54102C78.3121 4.54102 79.571 5.93835 79.571 8.73303V12.465C79.571 13.4775 79.6178 14.2837 79.7095 14.8813ZM77.4932 11.3987V9.83586C75.1384 9.79286 73.961 10.4743 73.961 11.8781C73.961 12.407 74.0954 12.8025 74.3704 13.0669C74.6454 13.3314 74.9958 13.4625 75.4134 13.4625C75.8819 13.4625 76.3199 13.3056 76.7191 12.9938C77.1204 12.68 77.3669 12.2823 77.4586 11.7943C77.481 11.6846 77.4932 11.5514 77.4932 11.3987Z" fill="white"/>
<path d="M91.8397 14.8811H89.9453L89.8455 13.2535H89.7864C89.1814 14.492 88.1507 15.1112 86.7023 15.1112C85.5453 15.1112 84.5818 14.6317 83.8179 13.6728C83.054 12.7139 82.6731 11.469 82.6731 9.94031C82.6731 8.29982 83.0866 6.97109 83.9177 5.95626C84.7223 5.01024 85.7083 4.53723 86.8816 4.53723C88.171 4.53723 89.0734 4.99519 89.5868 5.91326H89.6275V0.0952148H91.7644V12.1506C91.7644 13.1374 91.7888 14.0469 91.8397 14.8811ZM89.6275 10.6068V8.91689C89.6275 8.62448 89.6071 8.38797 89.5684 8.20737C89.4482 7.66556 89.1896 7.20974 88.7964 6.84208C88.3992 6.47443 87.9205 6.28952 87.3684 6.28952C86.572 6.28952 85.9486 6.62278 85.4903 7.29145C85.036 7.96011 84.8059 8.81368 84.8059 9.85646C84.8059 10.8584 85.0238 11.6711 85.4618 12.2968C85.9242 12.9633 86.5475 13.2965 87.3277 13.2965C88.0284 13.2965 88.5886 13.0192 89.0144 12.4623C89.4259 11.9485 89.6275 11.3292 89.6275 10.6068Z" fill="white"/>
<path d="M110.098 9.73052C110.098 11.2891 109.676 12.566 108.833 13.5678C107.949 14.5976 106.78 15.1113 105.315 15.1113C103.908 15.1113 102.785 14.6191 101.946 13.6302C101.111 12.6434 100.693 11.3987 100.693 9.8982C100.693 8.32888 101.123 7.04118 101.987 6.04154C102.85 5.04191 104.011 4.54102 105.476 4.54102C106.884 4.54102 108.018 5.03331 108.874 6.02004C109.689 6.97883 110.098 8.21709 110.098 9.73052ZM107.886 9.80361C107.886 8.86847 107.694 8.06661 107.313 7.39804C106.863 6.58973 106.228 6.18558 105.397 6.18558C104.541 6.18558 103.889 6.58973 103.439 7.39804C103.056 8.06661 102.867 8.88137 102.867 9.84446C102.867 10.7796 103.058 11.5815 103.439 12.25C103.901 13.0583 104.545 13.4625 105.376 13.4625C106.191 13.4625 106.833 13.0519 107.293 12.2285C107.686 11.5471 107.886 10.7388 107.886 9.80361Z" fill="white"/>
<path d="M121.577 14.8815H119.444V9.07684C119.444 7.28815 118.8 6.39381 117.507 6.39381C116.873 6.39381 116.362 6.63889 115.967 7.13121C115.572 7.62353 115.374 8.20399 115.374 8.8683V14.8793H113.237V7.64288C113.237 6.75284 113.213 5.78755 113.162 4.74272H115.036L115.136 6.32717H115.195C115.445 5.83485 115.816 5.42852 116.301 5.10389C116.882 4.72552 117.527 4.53418 118.238 4.53418C119.132 4.53418 119.878 4.83946 120.471 5.45217C121.21 6.20247 121.577 7.32255 121.577 8.81026V14.8815Z" fill="white"/>
<path d="M135.944 6.43926H133.593V11.3632C133.593 12.6146 134.011 13.2403 134.838 13.2403C135.221 13.2403 135.539 13.2059 135.789 13.1349L135.844 14.8443C135.423 15.0121 134.868 15.0959 134.186 15.0959C133.343 15.0959 132.687 14.825 132.212 14.2831C131.735 13.7413 131.499 12.8296 131.499 11.5503V6.43926H130.096V4.75137H131.499V2.89361L133.591 2.22705V4.74922H135.942V6.43926H135.944Z" fill="white"/>
<path d="M147.245 14.8812H145.108V9.11904C145.108 7.30224 144.465 6.39276 143.175 6.39276C142.185 6.39276 141.509 6.91953 141.138 7.97306C141.075 8.19452 141.038 8.46542 141.038 8.78363V14.8791H138.906V0.0952148H141.038V6.20355H141.079C141.751 5.09197 142.715 4.53725 143.963 4.53725C144.848 4.53725 145.579 4.84256 146.159 5.45533C146.883 6.2186 147.245 7.35384 147.245 8.85458V14.8812Z" fill="white"/>
<path d="M158.903 9.33674C158.903 9.74096 158.875 10.0807 158.824 10.358H152.421C152.45 11.36 152.755 12.1233 153.348 12.6522C153.89 13.1252 154.589 13.3617 155.444 13.3617C156.391 13.3617 157.255 13.2026 158.033 12.8822L158.367 14.4475C157.457 14.8646 156.385 15.0732 155.145 15.0732C153.658 15.0732 152.487 14.6109 151.639 13.6864C150.788 12.7618 150.366 11.5212 150.366 9.96457C150.366 8.43586 150.759 7.16301 151.552 6.14817C152.379 5.06453 153.497 4.52271 154.909 4.52271C156.29 4.52271 157.339 5.06453 158.048 6.14817C158.62 7.0082 158.903 8.07249 158.903 9.33674ZM156.866 8.75407C156.882 8.08539 156.742 7.50917 156.453 7.02325C156.082 6.39758 155.518 6.08367 154.754 6.08367C154.057 6.08367 153.489 6.38898 153.055 7.00175C152.7 7.48982 152.491 8.07249 152.421 8.75407H156.866Z" fill="white"/>
</svg>
