<svg width="1239" height="71" viewBox="0 0 1239 71" fill="none" xmlns="http://www.w3.org/2000/svg">
<g filter="url(#filter0_d)">
<rect x="4" width="1231" height="63" rx="8" fill="white"/>
<path d="M48.8936 40.8678L43.5105 35.5385C44.8065 33.8304 45.5061 31.7513 45.5038 29.615C45.5038 24.1582 41.0195 19.7188 35.5076 19.7188C29.9958 19.7188 25.5115 24.1582 25.5115 29.615C25.5115 35.0718 29.9958 39.5112 35.5076 39.5112C37.6655 39.5136 39.7656 38.821 41.4909 37.5379L46.874 42.8672C47.1465 43.1084 47.5019 43.2371 47.8673 43.227C48.2326 43.2168 48.5802 43.0686 48.8386 42.8128C49.0971 42.5569 49.2468 42.2128 49.257 41.8511C49.2672 41.4894 49.1372 41.1376 48.8936 40.8678ZM28.3675 29.615C28.3675 28.2169 28.7863 26.8503 29.5708 25.6878C30.3554 24.5254 31.4705 23.6193 32.7752 23.0843C34.0799 22.5493 35.5155 22.4093 36.9006 22.6821C38.2856 22.9548 39.5579 23.6281 40.5564 24.6166C41.555 25.6052 42.235 26.8648 42.5105 28.236C42.786 29.6072 42.6446 31.0284 42.1042 32.3201C41.5638 33.6117 40.6486 34.7157 39.4745 35.4924C38.3003 36.2692 36.9198 36.6838 35.5076 36.6838C33.6146 36.6815 31.7999 35.936 30.4613 34.6109C29.1228 33.2857 28.3698 31.4891 28.3675 29.615Z" fill="#E90A0A"/>
<line opacity="0.4" x1="1045.36" y1="15" x2="1045.36" y2="48" stroke="black" stroke-width="2" stroke-linecap="round"/>
<line opacity="0.4" x1="70.3362" y1="15" x2="70.3362" y2="48" stroke="black" stroke-width="2" stroke-linecap="round"/>
<path opacity="0.7" d="M97.9087 27.22V37.96C97.842 37.9867 97.7353 38.0133 97.5887 38.04C97.4553 38.08 97.3153 38.1 97.1687 38.1C96.582 38.1 96.2887 37.8533 96.2887 37.36V27.22H92.5487C92.5087 27.1533 92.4687 27.0667 92.4287 26.96C92.3887 26.84 92.3687 26.7067 92.3687 26.56C92.3687 26.3333 92.422 26.16 92.5287 26.04C92.6353 25.9067 92.7887 25.84 92.9887 25.84H101.649C101.689 25.9067 101.729 26 101.769 26.12C101.809 26.2267 101.829 26.3467 101.829 26.48C101.829 26.7067 101.775 26.8867 101.669 27.02C101.562 27.1533 101.409 27.22 101.209 27.22H97.9087ZM106.454 36.96C107.014 36.96 107.474 36.9067 107.834 36.8C108.207 36.68 108.474 36.5667 108.634 36.46V33.56L106.154 33.82C105.46 33.8867 104.947 34.0467 104.614 34.3C104.28 34.54 104.114 34.9 104.114 35.38C104.114 35.8867 104.307 36.28 104.694 36.56C105.08 36.8267 105.667 36.96 106.454 36.96ZM106.434 28.5C107.594 28.5 108.514 28.76 109.194 29.28C109.874 29.8 110.214 30.62 110.214 31.74V36.48C110.214 36.7733 110.154 37 110.034 37.16C109.927 37.3067 109.76 37.4467 109.534 37.58C109.214 37.7667 108.787 37.9267 108.254 38.06C107.734 38.2067 107.134 38.28 106.454 38.28C105.2 38.28 104.227 38.0333 103.534 37.54C102.854 37.0467 102.514 36.3333 102.514 35.4C102.514 34.52 102.8 33.86 103.374 33.42C103.947 32.9667 104.754 32.6867 105.794 32.58L108.634 32.3V31.74C108.634 31.0733 108.434 30.5867 108.034 30.28C107.634 29.9733 107.094 29.82 106.414 29.82C105.854 29.82 105.327 29.9 104.834 30.06C104.34 30.22 103.9 30.4 103.514 30.6C103.407 30.5067 103.307 30.4 103.214 30.28C103.134 30.16 103.094 30.0267 103.094 29.88C103.094 29.6933 103.14 29.54 103.234 29.42C103.327 29.3 103.474 29.1867 103.674 29.08C104.034 28.8933 104.447 28.7533 104.914 28.66C105.38 28.5533 105.887 28.5 106.434 28.5ZM114.774 37.96C114.708 37.9867 114.608 38.0133 114.474 38.04C114.341 38.08 114.194 38.1 114.034 38.1C113.461 38.1 113.174 37.86 113.174 37.38V25.04C113.241 25.0133 113.341 24.9867 113.474 24.96C113.621 24.92 113.774 24.9 113.934 24.9C114.494 24.9 114.774 25.14 114.774 25.62V32.82L119.154 28.58C119.474 28.5933 119.721 28.6733 119.894 28.82C120.081 28.9533 120.174 29.1333 120.174 29.36C120.174 29.5467 120.114 29.7133 119.994 29.86C119.874 29.9933 119.714 30.1533 119.514 30.34L116.294 33.16L120.754 37.16C120.728 37.4533 120.634 37.6867 120.474 37.86C120.328 38.0333 120.128 38.12 119.874 38.12C119.674 38.12 119.488 38.0733 119.314 37.98C119.154 37.8733 118.988 37.7267 118.814 37.54L114.774 33.48V37.96ZM123.825 34.32C124.185 36.0667 125.332 36.94 127.265 36.94C127.825 36.94 128.332 36.8467 128.785 36.66C129.238 36.4733 129.598 36.2733 129.865 36.06C130.185 36.2467 130.345 36.5 130.345 36.82C130.345 37.0067 130.258 37.1867 130.085 37.36C129.925 37.5333 129.698 37.6867 129.405 37.82C129.125 37.9533 128.792 38.06 128.405 38.14C128.032 38.22 127.625 38.26 127.185 38.26C125.638 38.26 124.412 37.84 123.505 37C122.612 36.16 122.165 34.9333 122.165 33.32C122.165 32.56 122.272 31.8867 122.485 31.3C122.712 30.7 123.018 30.1933 123.405 29.78C123.805 29.3667 124.278 29.0533 124.825 28.84C125.372 28.6133 125.965 28.5 126.605 28.5C127.205 28.5 127.758 28.6 128.265 28.8C128.772 29 129.205 29.2867 129.565 29.66C129.938 30.02 130.225 30.4533 130.425 30.96C130.638 31.4533 130.745 32 130.745 32.6C130.745 32.8933 130.678 33.1067 130.545 33.24C130.412 33.36 130.225 33.4333 129.985 33.46L123.825 34.32ZM126.585 29.8C125.772 29.8 125.098 30.0867 124.565 30.66C124.032 31.22 123.752 32.0267 123.725 33.08L129.225 32.32C129.158 31.5867 128.898 30.9867 128.445 30.52C128.005 30.04 127.385 29.8 126.585 29.8ZM140.36 36.96C140.92 36.96 141.38 36.9067 141.74 36.8C142.113 36.68 142.38 36.5667 142.54 36.46V33.56L140.06 33.82C139.367 33.8867 138.853 34.0467 138.52 34.3C138.187 34.54 138.02 34.9 138.02 35.38C138.02 35.8867 138.213 36.28 138.6 36.56C138.987 36.8267 139.573 36.96 140.36 36.96ZM140.34 28.5C141.5 28.5 142.42 28.76 143.1 29.28C143.78 29.8 144.12 30.62 144.12 31.74V36.48C144.12 36.7733 144.06 37 143.94 37.16C143.833 37.3067 143.667 37.4467 143.44 37.58C143.12 37.7667 142.693 37.9267 142.16 38.06C141.64 38.2067 141.04 38.28 140.36 38.28C139.107 38.28 138.133 38.0333 137.44 37.54C136.76 37.0467 136.42 36.3333 136.42 35.4C136.42 34.52 136.707 33.86 137.28 33.42C137.853 32.9667 138.66 32.6867 139.7 32.58L142.54 32.3V31.74C142.54 31.0733 142.34 30.5867 141.94 30.28C141.54 29.9733 141 29.82 140.32 29.82C139.76 29.82 139.233 29.9 138.74 30.06C138.247 30.22 137.807 30.4 137.42 30.6C137.313 30.5067 137.213 30.4 137.12 30.28C137.04 30.16 137 30.0267 137 29.88C137 29.6933 137.047 29.54 137.14 29.42C137.233 29.3 137.38 29.1867 137.58 29.08C137.94 28.8933 138.353 28.7533 138.82 28.66C139.287 28.5533 139.793 28.5 140.34 28.5ZM152.804 37.96C152.738 37.9867 152.638 38.0133 152.504 38.04C152.371 38.08 152.224 38.1 152.064 38.1C151.491 38.1 151.204 37.86 151.204 37.38V25.04C151.271 25.0133 151.371 24.9867 151.504 24.96C151.651 24.92 151.798 24.9 151.944 24.9C152.518 24.9 152.804 25.14 152.804 25.62V37.96ZM164.546 33.38C164.546 34.1267 164.44 34.8 164.226 35.4C164.013 36 163.706 36.5133 163.306 36.94C162.92 37.3667 162.446 37.6933 161.886 37.92C161.326 38.1467 160.7 38.26 160.006 38.26C159.313 38.26 158.686 38.1467 158.126 37.92C157.566 37.6933 157.086 37.3667 156.686 36.94C156.286 36.5133 155.98 36 155.766 35.4C155.553 34.8 155.446 34.1267 155.446 33.38C155.446 32.6333 155.553 31.96 155.766 31.36C155.993 30.76 156.306 30.2467 156.706 29.82C157.106 29.3933 157.586 29.0667 158.146 28.84C158.706 28.6133 159.326 28.5 160.006 28.5C160.686 28.5 161.306 28.6133 161.866 28.84C162.426 29.0667 162.9 29.3933 163.286 29.82C163.686 30.2467 163.993 30.76 164.206 31.36C164.433 31.96 164.546 32.6333 164.546 33.38ZM160.006 29.82C159.1 29.82 158.386 30.1333 157.866 30.76C157.346 31.3867 157.086 32.26 157.086 33.38C157.086 34.5133 157.34 35.3933 157.846 36.02C158.366 36.6333 159.086 36.94 160.006 36.94C160.926 36.94 161.64 36.6267 162.146 36C162.653 35.3733 162.906 34.5 162.906 33.38C162.906 32.26 162.646 31.3867 162.126 30.76C161.62 30.1333 160.913 29.82 160.006 29.82ZM175.601 33.38C175.601 34.1267 175.494 34.8 175.281 35.4C175.068 36 174.761 36.5133 174.361 36.94C173.974 37.3667 173.501 37.6933 172.941 37.92C172.381 38.1467 171.754 38.26 171.061 38.26C170.368 38.26 169.741 38.1467 169.181 37.92C168.621 37.6933 168.141 37.3667 167.741 36.94C167.341 36.5133 167.034 36 166.821 35.4C166.608 34.8 166.501 34.1267 166.501 33.38C166.501 32.6333 166.608 31.96 166.821 31.36C167.048 30.76 167.361 30.2467 167.761 29.82C168.161 29.3933 168.641 29.0667 169.201 28.84C169.761 28.6133 170.381 28.5 171.061 28.5C171.741 28.5 172.361 28.6133 172.921 28.84C173.481 29.0667 173.954 29.3933 174.341 29.82C174.741 30.2467 175.048 30.76 175.261 31.36C175.488 31.96 175.601 32.6333 175.601 33.38ZM171.061 29.82C170.154 29.82 169.441 30.1333 168.921 30.76C168.401 31.3867 168.141 32.26 168.141 33.38C168.141 34.5133 168.394 35.3933 168.901 36.02C169.421 36.6333 170.141 36.94 171.061 36.94C171.981 36.94 172.694 36.6267 173.201 36C173.708 35.3733 173.961 34.5 173.961 33.38C173.961 32.26 173.701 31.3867 173.181 30.76C172.674 30.1333 171.968 29.82 171.061 29.82ZM179.716 37.96C179.649 37.9867 179.549 38.0133 179.416 38.04C179.282 38.08 179.136 38.1 178.976 38.1C178.402 38.1 178.116 37.86 178.116 37.38V25.04C178.182 25.0133 178.282 24.9867 178.416 24.96C178.562 24.92 178.716 24.9 178.876 24.9C179.436 24.9 179.716 25.14 179.716 25.62V32.82L184.096 28.58C184.416 28.5933 184.662 28.6733 184.836 28.82C185.022 28.9533 185.116 29.1333 185.116 29.36C185.116 29.5467 185.056 29.7133 184.936 29.86C184.816 29.9933 184.656 30.1533 184.456 30.34L181.236 33.16L185.696 37.16C185.669 37.4533 185.576 37.6867 185.416 37.86C185.269 38.0333 185.069 38.12 184.816 38.12C184.616 38.12 184.429 38.0733 184.256 37.98C184.096 37.8733 183.929 37.7267 183.756 37.54L179.716 33.48V37.96ZM195.126 36.96C195.686 36.96 196.146 36.9067 196.506 36.8C196.879 36.68 197.146 36.5667 197.306 36.46V33.56L194.826 33.82C194.132 33.8867 193.619 34.0467 193.286 34.3C192.952 34.54 192.786 34.9 192.786 35.38C192.786 35.8867 192.979 36.28 193.366 36.56C193.752 36.8267 194.339 36.96 195.126 36.96ZM195.106 28.5C196.266 28.5 197.186 28.76 197.866 29.28C198.546 29.8 198.886 30.62 198.886 31.74V36.48C198.886 36.7733 198.826 37 198.706 37.16C198.599 37.3067 198.432 37.4467 198.206 37.58C197.886 37.7667 197.459 37.9267 196.926 38.06C196.406 38.2067 195.806 38.28 195.126 38.28C193.872 38.28 192.899 38.0333 192.206 37.54C191.526 37.0467 191.186 36.3333 191.186 35.4C191.186 34.52 191.472 33.86 192.046 33.42C192.619 32.9667 193.426 32.6867 194.466 32.58L197.306 32.3V31.74C197.306 31.0733 197.106 30.5867 196.706 30.28C196.306 29.9733 195.766 29.82 195.086 29.82C194.526 29.82 193.999 29.9 193.506 30.06C193.012 30.22 192.572 30.4 192.186 30.6C192.079 30.5067 191.979 30.4 191.886 30.28C191.806 30.16 191.766 30.0267 191.766 29.88C191.766 29.6933 191.812 29.54 191.906 29.42C191.999 29.3 192.146 29.1867 192.346 29.08C192.706 28.8933 193.119 28.7533 193.586 28.66C194.052 28.5533 194.559 28.5 195.106 28.5ZM203.406 37.96C203.339 37.9867 203.239 38.0133 203.106 38.04C202.973 38.08 202.826 38.1 202.666 38.1C202.093 38.1 201.806 37.86 201.806 37.38V30.6C201.806 30.2933 201.859 30.0533 201.966 29.88C202.086 29.6933 202.279 29.5133 202.546 29.34C202.893 29.1133 203.359 28.92 203.946 28.76C204.546 28.5867 205.219 28.5 205.966 28.5C207.033 28.5 207.566 28.7667 207.566 29.3C207.566 29.4333 207.546 29.56 207.506 29.68C207.466 29.7867 207.413 29.88 207.346 29.96C207.213 29.9333 207.039 29.9067 206.826 29.88C206.613 29.8533 206.399 29.84 206.186 29.84C205.573 29.84 205.033 29.9067 204.566 30.04C204.099 30.16 203.713 30.3067 203.406 30.48V37.96ZM217.828 33.38C217.828 34.1267 217.721 34.8 217.508 35.4C217.294 36 216.988 36.5133 216.588 36.94C216.201 37.3667 215.728 37.6933 215.168 37.92C214.608 38.1467 213.981 38.26 213.288 38.26C212.594 38.26 211.968 38.1467 211.408 37.92C210.848 37.6933 210.368 37.3667 209.968 36.94C209.568 36.5133 209.261 36 209.048 35.4C208.834 34.8 208.728 34.1267 208.728 33.38C208.728 32.6333 208.834 31.96 209.048 31.36C209.274 30.76 209.588 30.2467 209.988 29.82C210.388 29.3933 210.868 29.0667 211.428 28.84C211.988 28.6133 212.608 28.5 213.288 28.5C213.968 28.5 214.588 28.6133 215.148 28.84C215.708 29.0667 216.181 29.3933 216.568 29.82C216.968 30.2467 217.274 30.76 217.488 31.36C217.714 31.96 217.828 32.6333 217.828 33.38ZM213.288 29.82C212.381 29.82 211.668 30.1333 211.148 30.76C210.628 31.3867 210.368 32.26 210.368 33.38C210.368 34.5133 210.621 35.3933 211.128 36.02C211.648 36.6333 212.368 36.94 213.288 36.94C214.208 36.94 214.921 36.6267 215.428 36C215.934 35.3733 216.188 34.5 216.188 33.38C216.188 32.26 215.928 31.3867 215.408 30.76C214.901 30.1333 214.194 29.82 213.288 29.82ZM220.302 28.8C220.369 28.7733 220.469 28.7467 220.602 28.72C220.749 28.68 220.902 28.66 221.062 28.66C221.622 28.66 221.902 28.9067 221.902 29.4V34.54C221.902 35.4067 222.129 36.0267 222.582 36.4C223.036 36.76 223.662 36.94 224.462 36.94C224.996 36.94 225.449 36.8867 225.822 36.78C226.196 36.66 226.489 36.54 226.702 36.42V28.8C226.769 28.7733 226.869 28.7467 227.002 28.72C227.149 28.68 227.296 28.66 227.442 28.66C228.016 28.66 228.302 28.9067 228.302 29.4V36.36C228.302 36.64 228.262 36.8667 228.182 37.04C228.116 37.2 227.942 37.36 227.662 37.52C227.356 37.6933 226.929 37.86 226.382 38.02C225.849 38.18 225.202 38.26 224.442 38.26C223.109 38.26 222.082 37.9667 221.362 37.38C220.656 36.7933 220.302 35.8733 220.302 34.62V28.8ZM237.698 31.98C237.698 31.2333 237.485 30.6867 237.058 30.34C236.645 29.9933 236.085 29.82 235.378 29.82C234.845 29.82 234.372 29.8867 233.958 30.02C233.545 30.1533 233.192 30.3067 232.898 30.48V37.96C232.832 37.9867 232.732 38.0133 232.598 38.04C232.465 38.08 232.318 38.1 232.158 38.1C231.585 38.1 231.298 37.86 231.298 37.38V30.56C231.298 30.28 231.352 30.0533 231.458 29.88C231.578 29.6933 231.778 29.5133 232.058 29.34C232.405 29.1267 232.865 28.9333 233.438 28.76C234.012 28.5867 234.658 28.5 235.378 28.5C236.592 28.5 237.545 28.7733 238.238 29.32C238.945 29.8667 239.298 30.7267 239.298 31.9V37.96C239.232 37.9867 239.125 38.0133 238.978 38.04C238.845 38.08 238.705 38.1 238.558 38.1C237.985 38.1 237.698 37.86 237.698 37.38V31.98ZM250.194 36.48C250.194 36.7467 250.134 36.9533 250.014 37.1C249.908 37.2467 249.734 37.3933 249.494 37.54C249.228 37.7133 248.848 37.8733 248.354 38.02C247.861 38.18 247.294 38.26 246.654 38.26C245.934 38.26 245.274 38.1667 244.674 37.98C244.074 37.7933 243.554 37.5067 243.114 37.12C242.688 36.72 242.354 36.22 242.114 35.62C241.888 35.0067 241.774 34.2733 241.774 33.42C241.774 32.5533 241.894 31.8133 242.134 31.2C242.374 30.5733 242.694 30.06 243.094 29.66C243.508 29.26 243.988 28.9667 244.534 28.78C245.094 28.5933 245.688 28.5 246.314 28.5C246.741 28.5 247.154 28.5533 247.554 28.66C247.954 28.7667 248.301 28.9 248.594 29.06V25.04C248.661 25.0133 248.761 24.9867 248.894 24.96C249.041 24.92 249.188 24.9 249.334 24.9C249.908 24.9 250.194 25.14 250.194 25.62V36.48ZM248.594 30.5C248.328 30.3133 248.021 30.1533 247.674 30.02C247.328 29.8867 246.928 29.82 246.474 29.82C246.061 29.82 245.668 29.8867 245.294 30.02C244.934 30.14 244.614 30.3467 244.334 30.64C244.054 30.92 243.828 31.2933 243.654 31.76C243.494 32.2267 243.414 32.7933 243.414 33.46C243.414 34.6867 243.708 35.5733 244.294 36.12C244.881 36.6667 245.661 36.94 246.634 36.94C247.101 36.94 247.481 36.8933 247.774 36.8C248.081 36.6933 248.354 36.5667 248.594 36.42V30.5Z" fill="black"/>
</g>
<defs>
<filter id="filter0_d" x="0" y="0" width="1239" height="71" filterUnits="userSpaceOnUse" color-interpolation-filters="sRGB">
<feFlood flood-opacity="0" result="BackgroundImageFix"/>
<feColorMatrix in="SourceAlpha" type="matrix" values="0 0 0 0 0 0 0 0 0 0 0 0 0 0 0 0 0 0 127 0" result="hardAlpha"/>
<feOffset dy="4"/>
<feGaussianBlur stdDeviation="2"/>
<feComposite in2="hardAlpha" operator="out"/>
<feColorMatrix type="matrix" values="0 0 0 0 0 0 0 0 0 0 0 0 0 0 0 0 0 0 0.25 0"/>
<feBlend mode="normal" in2="BackgroundImageFix" result="effect1_dropShadow"/>
<feBlend mode="normal" in="SourceGraphic" in2="effect1_dropShadow" result="shape"/>
</filter>
</defs>
</svg>
