<svg width="126" height="55" viewBox="0 0 126 55" fill="none" xmlns="http://www.w3.org/2000/svg">
<g filter="url(#filter0_d)">
<rect x="4.55615" width="116.681" height="47" rx="10" fill="white"/>
<path d="M36.3722 27.52C37.2122 27.52 37.8322 27.3467 38.2322 27C38.6322 26.6533 38.8322 26.2067 38.8322 25.66C38.8322 25.18 38.6788 24.7933 38.3722 24.5C38.0655 24.2067 37.5788 23.96 36.9122 23.76L35.4122 23.3C34.9455 23.1533 34.5188 22.9867 34.1322 22.8C33.7588 22.6 33.4388 22.3733 33.1722 22.12C32.9055 21.8533 32.6988 21.5467 32.5522 21.2C32.4188 20.84 32.3522 20.4267 32.3522 19.96C32.3522 18.9067 32.7388 18.08 33.5122 17.48C34.2988 16.8667 35.3588 16.56 36.6922 16.56C37.2388 16.56 37.7455 16.6067 38.2122 16.7C38.6788 16.78 39.0788 16.9 39.4122 17.06C39.7588 17.2067 40.0255 17.3867 40.2122 17.6C40.4122 17.8 40.5122 18.02 40.5122 18.26C40.5122 18.4867 40.4522 18.6867 40.3322 18.86C40.2255 19.02 40.0922 19.1533 39.9322 19.26C39.5988 19.0067 39.1588 18.7933 38.6122 18.62C38.0788 18.4333 37.4855 18.34 36.8322 18.34C36.0988 18.34 35.5322 18.4867 35.1322 18.78C34.7322 19.0733 34.5322 19.4667 34.5322 19.96C34.5322 20.36 34.6722 20.6867 34.9522 20.94C35.2322 21.18 35.6922 21.3933 36.3322 21.58L37.4922 21.92C38.6122 22.2533 39.4788 22.7133 40.0922 23.3C40.7188 23.8733 41.0322 24.66 41.0322 25.66C41.0322 26.1933 40.9255 26.6867 40.7122 27.14C40.5122 27.58 40.2188 27.96 39.8322 28.28C39.4455 28.6 38.9588 28.8467 38.3722 29.02C37.7988 29.1933 37.1455 29.28 36.4122 29.28C35.7988 29.28 35.2388 29.2267 34.7322 29.12C34.2255 29.0133 33.7855 28.8733 33.4122 28.7C33.0522 28.5267 32.7722 28.3267 32.5722 28.1C32.3722 27.8733 32.2722 27.6333 32.2722 27.38C32.2722 27.1133 32.3522 26.8867 32.5122 26.7C32.6722 26.5133 32.8588 26.3733 33.0722 26.28C33.3922 26.5733 33.8255 26.8533 34.3722 27.12C34.9322 27.3867 35.5988 27.52 36.3722 27.52ZM45.4572 28.96C45.3638 29 45.2305 29.0333 45.0572 29.06C44.8972 29.1 44.7105 29.12 44.4972 29.12C44.1105 29.12 43.8238 29.0467 43.6372 28.9C43.4505 28.7533 43.3572 28.5067 43.3572 28.16V19.7C43.4638 19.6733 43.5972 19.64 43.7572 19.6C43.9305 19.56 44.1238 19.54 44.3372 19.54C44.7238 19.54 45.0038 19.6133 45.1772 19.76C45.3638 19.9067 45.4572 20.16 45.4572 20.52V28.96ZM43.1372 16.76C43.1372 16.4133 43.2572 16.1267 43.4972 15.9C43.7372 15.66 44.0438 15.54 44.4172 15.54C44.7905 15.54 45.0905 15.66 45.3172 15.9C45.5438 16.1267 45.6572 16.4133 45.6572 16.76C45.6572 17.1067 45.5438 17.4 45.3172 17.64C45.0905 17.8667 44.7905 17.98 44.4172 17.98C44.0438 17.98 43.7372 17.8667 43.4972 17.64C43.2572 17.4 43.1372 17.1067 43.1372 16.76ZM54.4362 28.12C54.1829 28.28 53.8696 28.4133 53.4962 28.52C53.1362 28.6267 52.7029 28.68 52.1962 28.68C51.6096 28.68 51.0496 28.6 50.5162 28.44C49.9962 28.2667 49.5362 28 49.1362 27.64C48.7362 27.2667 48.4162 26.7867 48.1762 26.2C47.9496 25.6133 47.8362 24.8933 47.8362 24.04C47.8362 23.2667 47.9496 22.5933 48.1762 22.02C48.4162 21.4333 48.7429 20.9467 49.1562 20.56C49.5829 20.16 50.0829 19.86 50.6562 19.66C51.2429 19.46 51.8896 19.36 52.5962 19.36C53.2496 19.36 53.8496 19.4467 54.3962 19.62C54.9562 19.78 55.4096 19.9733 55.7562 20.2C55.9829 20.3467 56.1562 20.5133 56.2762 20.7C56.4096 20.8867 56.4762 21.1133 56.4762 21.38V29.26C56.4762 29.9267 56.3562 30.5 56.1162 30.98C55.8896 31.46 55.5696 31.8467 55.1562 32.14C54.7562 32.4467 54.2762 32.6667 53.7162 32.8C53.1562 32.9467 52.5562 33.02 51.9162 33.02C51.2362 33.02 50.6496 32.9533 50.1562 32.82C49.6629 32.6867 49.3029 32.5533 49.0762 32.42C48.6629 32.1667 48.4562 31.8333 48.4562 31.42C48.4562 31.1933 48.5029 31 48.5962 30.84C48.6896 30.6933 48.8096 30.5733 48.9562 30.48C49.2629 30.6933 49.6696 30.8867 50.1762 31.06C50.6829 31.2333 51.2229 31.32 51.7962 31.32C52.6362 31.32 53.2829 31.1467 53.7362 30.8C54.2029 30.4667 54.4362 29.92 54.4362 29.16V28.12ZM52.4962 27.04C52.9496 27.04 53.3296 26.9733 53.6362 26.84C53.9429 26.7067 54.2029 26.5467 54.4162 26.36V21.52C54.2162 21.4 53.9696 21.2933 53.6762 21.2C53.3829 21.0933 53.0362 21.04 52.6362 21.04C51.8229 21.04 51.1696 21.2867 50.6762 21.78C50.1829 22.2733 49.9362 23.02 49.9362 24.02C49.9362 24.5667 50.0029 25.0333 50.1362 25.42C50.2696 25.8067 50.4496 26.12 50.6762 26.36C50.9029 26.6 51.1696 26.7733 51.4762 26.88C51.7962 26.9867 52.1362 27.04 52.4962 27.04ZM65.5347 22.94C65.5347 22.2867 65.348 21.8067 64.9747 21.5C64.6147 21.1933 64.1213 21.04 63.4947 21.04C63.028 21.04 62.608 21.1 62.2347 21.22C61.8747 21.34 61.5613 21.4733 61.2947 21.62V28.96C61.2013 29 61.068 29.0333 60.8947 29.06C60.7347 29.1 60.5547 29.12 60.3547 29.12C59.968 29.12 59.6813 29.0467 59.4947 28.9C59.308 28.7533 59.2147 28.5067 59.2147 28.16V21.56C59.2147 21.2533 59.2747 21.0067 59.3947 20.82C59.5147 20.6333 59.7147 20.4467 59.9947 20.26C60.368 20.0333 60.8547 19.8267 61.4547 19.64C62.0547 19.4533 62.7347 19.36 63.4947 19.36C64.788 19.36 65.8013 19.6533 66.5347 20.24C67.268 20.8133 67.6347 21.6867 67.6347 22.86V28.96C67.5413 29 67.408 29.0333 67.2347 29.06C67.0613 29.1 66.8747 29.12 66.6747 29.12C66.288 29.12 66.0013 29.0467 65.8147 28.9C65.628 28.7533 65.5347 28.5067 65.5347 28.16V22.94ZM74.3904 19.66C74.4838 19.6333 74.6171 19.6067 74.7904 19.58C74.9638 19.54 75.1504 19.52 75.3504 19.52C75.7371 19.52 76.0171 19.5933 76.1904 19.74C76.3771 19.8867 76.4704 20.14 76.4704 20.5V25.44C76.4704 26.2133 76.6704 26.7667 77.0704 27.1C77.4838 27.42 78.0504 27.58 78.7704 27.58C79.2371 27.58 79.6304 27.5333 79.9504 27.44C80.2704 27.3467 80.5238 27.2467 80.7104 27.14V19.66C80.8171 19.6333 80.9504 19.6067 81.1104 19.58C81.2838 19.54 81.4704 19.52 81.6704 19.52C82.0571 19.52 82.3438 19.5933 82.5304 19.74C82.7171 19.8867 82.8104 20.14 82.8104 20.5V27.24C82.8104 27.5333 82.7638 27.7733 82.6704 27.96C82.5771 28.1467 82.3904 28.3267 82.1104 28.5C81.7638 28.7 81.3038 28.88 80.7304 29.04C80.1704 29.2 79.5104 29.28 78.7504 29.28C77.3771 29.28 76.3038 28.98 75.5304 28.38C74.7704 27.7667 74.3904 26.8 74.3904 25.48V19.66ZM89.8023 29.28C89.3757 29.28 88.9757 29.2333 88.6023 29.14C88.229 29.06 87.909 28.9533 87.6423 28.82V32.58C87.549 32.62 87.4157 32.6533 87.2423 32.68C87.0823 32.72 86.9023 32.74 86.7023 32.74C86.3157 32.74 86.029 32.6667 85.8423 32.52C85.6557 32.3733 85.5623 32.12 85.5623 31.76V21.42C85.5623 21.1267 85.6157 20.8933 85.7223 20.72C85.829 20.5333 86.029 20.3533 86.3223 20.18C86.6957 19.9667 87.149 19.78 87.6823 19.62C88.229 19.4467 88.8423 19.36 89.5223 19.36C90.2157 19.36 90.8623 19.46 91.4623 19.66C92.0623 19.8467 92.5823 20.14 93.0223 20.54C93.4623 20.94 93.809 21.4533 94.0623 22.08C94.3157 22.6933 94.4423 23.4267 94.4423 24.28C94.4423 25.12 94.3223 25.8533 94.0823 26.48C93.8557 27.0933 93.5357 27.6133 93.1223 28.04C92.7223 28.4533 92.2357 28.7667 91.6623 28.98C91.1023 29.18 90.4823 29.28 89.8023 29.28ZM89.4823 27.58C90.349 27.58 91.0357 27.32 91.5423 26.8C92.049 26.2667 92.3023 25.4267 92.3023 24.28C92.3023 23.6933 92.229 23.1933 92.0823 22.78C91.9357 22.3667 91.7357 22.0333 91.4823 21.78C91.2423 21.5133 90.949 21.3267 90.6023 21.22C90.269 21.1 89.909 21.04 89.5223 21.04C89.0957 21.04 88.729 21.0933 88.4223 21.2C88.129 21.2933 87.869 21.4067 87.6423 21.54V27.04C87.869 27.2 88.1357 27.3333 88.4423 27.44C88.749 27.5333 89.0957 27.58 89.4823 27.58Z" fill="#E90A0A"/>
</g>
<defs>
<filter id="filter0_d" x="0.556152" y="0" width="124.681" height="55" filterUnits="userSpaceOnUse" color-interpolation-filters="sRGB">
<feFlood flood-opacity="0" result="BackgroundImageFix"/>
<feColorMatrix in="SourceAlpha" type="matrix" values="0 0 0 0 0 0 0 0 0 0 0 0 0 0 0 0 0 0 127 0" result="hardAlpha"/>
<feOffset dy="4"/>
<feGaussianBlur stdDeviation="2"/>
<feComposite in2="hardAlpha" operator="out"/>
<feColorMatrix type="matrix" values="0 0 0 0 0 0 0 0 0 0 0 0 0 0 0 0 0 0 0.25 0"/>
<feBlend mode="normal" in2="BackgroundImageFix" result="effect1_dropShadow"/>
<feBlend mode="normal" in="SourceGraphic" in2="effect1_dropShadow" result="shape"/>
</filter>
</defs>
</svg>
