<svg width="20" height="23" viewBox="0 0 20 23" fill="none" xmlns="http://www.w3.org/2000/svg">
<path d="M19.2967 11.2494C19.2967 14.4206 18.4371 17.0243 16.7219 19.0603C14.9232 21.1566 12.5358 22.2015 9.55971 22.2015C6.69157 22.2015 4.40804 21.1974 2.70507 19.1893C1.00211 17.1812 0.150635 14.6464 0.150635 11.5912C0.150635 8.39417 1.02656 5.77548 2.78452 3.73943C4.53841 1.70123 6.90545 0.682129 9.88156 0.682129C12.7497 0.682129 15.0577 1.68618 16.7993 3.69643C18.4656 5.64648 19.2967 8.16413 19.2967 11.2494ZM14.7908 11.3977C14.7908 9.49497 14.4058 7.86313 13.6256 6.50218C12.7151 4.85528 11.4134 4.03398 9.72674 4.03398C7.981 4.03398 6.6549 4.85743 5.74434 6.50218C4.96416 7.86528 4.57916 9.52292 4.57916 11.4837C4.57916 13.3865 4.96416 15.0183 5.74434 16.3771C6.68341 18.024 7.99526 18.8453 9.68804 18.8453C11.3462 18.8453 12.6479 18.0068 13.5869 16.3341C14.3875 14.9474 14.7908 13.2983 14.7908 11.3977Z" fill="white"/>
</svg>
