<svg width="18" height="23" viewBox="0 0 18 23" fill="none" xmlns="http://www.w3.org/2000/svg">
<path d="M17.8369 10.4434C17.8369 11.2647 17.786 11.957 17.678 12.5225H4.64916C4.70008 14.5607 5.32953 16.1194 6.53953 17.1944C7.63749 18.1555 9.05731 18.6371 10.801 18.6371C12.7301 18.6371 14.4901 18.3124 16.0729 17.661L16.7532 20.843C14.9036 21.6944 12.7199 22.1179 10.2001 22.1179C7.16897 22.1179 4.78972 21.1762 3.05824 19.295C1.33083 17.4137 0.465088 14.8875 0.465088 11.7184C0.465088 8.60733 1.26973 6.01659 2.88102 3.95044C4.56769 1.74455 6.84712 0.641602 9.71526 0.641602C12.5325 0.641602 14.6653 1.74455 16.1136 3.95044C17.2604 5.70269 17.8369 7.86988 17.8369 10.4434ZM13.6956 9.25448C13.7242 7.89568 13.441 6.72178 12.8523 5.73064C12.1006 4.45569 10.9456 3.81929 9.39138 3.81929C7.97157 3.81929 6.81657 4.44064 5.93454 5.68764C5.21139 6.67879 4.78157 7.86773 4.64916 9.25233H13.6956V9.25448Z" fill="white"/>
</svg>
