<svg width="20" height="31" viewBox="0 0 20 31" fill="none" xmlns="http://www.w3.org/2000/svg">
<path d="M19.719 11.1665C19.719 14.6753 18.8207 17.4489 17.024 19.485C15.4148 21.2975 13.4164 22.2027 11.0311 22.2027C8.45626 22.2027 6.60663 21.2265 5.48015 19.2743H5.39866V30.1428H1.0557V7.89623C1.0557 5.69028 1.0007 3.42628 0.894775 1.10423H4.71422L4.95663 4.37445H5.03811C6.48645 1.91049 8.68441 0.680664 11.634 0.680664C13.94 0.680664 15.865 1.64173 17.405 3.56603C18.949 5.49247 19.719 8.02523 19.719 11.1665ZM15.2946 11.3342C15.2946 9.32602 14.8668 7.67048 14.0072 6.36755C13.0681 5.00872 11.8072 4.3293 10.2264 4.3293C9.15496 4.3293 8.18126 4.70771 7.31144 5.45377C6.43959 6.20629 5.86922 7.18887 5.60237 8.4058C5.46792 8.97341 5.4007 9.43782 5.4007 9.80333V13.2434C5.4007 14.7441 5.83663 16.0105 6.70848 17.0447C7.58034 18.0789 8.71293 18.5949 10.1063 18.5949C11.742 18.5949 13.0152 17.9284 13.9257 16.5996C14.8383 15.2688 15.2946 13.5143 15.2946 11.3342Z" fill="white"/>
</svg>
