<svg width="18" height="31" viewBox="0 0 18 31" fill="none" xmlns="http://www.w3.org/2000/svg">
<path d="M17.3391 21.7095C17.3391 24.1433 16.5385 26.1234 14.9313 27.6521C13.1652 29.3227 10.7065 30.1569 7.547 30.1569C4.62996 30.1569 2.29143 29.5635 0.52124 28.3745L1.52755 24.5539C3.43422 25.7708 5.52626 26.3815 7.80571 26.3815C9.44145 26.3815 10.7146 25.9901 11.6292 25.2118C12.5398 24.4335 12.994 23.3886 12.994 22.0857C12.994 20.9247 12.6192 19.9465 11.8676 19.1531C11.12 18.3597 9.87126 17.6223 8.12755 16.9407C3.38125 15.0724 1.01014 12.3354 1.01014 8.73627C1.01014 6.38416 1.84125 4.45559 3.50551 2.95488C5.16366 1.45202 7.37588 0.70166 10.1422 0.70166C12.609 0.70166 14.6583 1.15531 16.2941 2.06047L15.2083 5.7972C13.6805 4.91999 11.9531 4.48139 10.02 4.48139C8.49219 4.48139 7.29849 4.87914 6.44293 5.67035C5.71978 6.3777 5.35718 7.23986 5.35718 8.26112C5.35718 9.39203 5.7707 10.3273 6.60181 11.0626C7.32496 11.742 8.63886 12.4773 10.5455 13.2707C12.8779 14.2618 14.5911 15.4207 15.6931 16.7494C16.7911 18.0738 17.3391 19.7314 17.3391 21.7095Z" fill="white"/>
</svg>
