<svg width="20" height="31" viewBox="0 0 20 31" fill="none" xmlns="http://www.w3.org/2000/svg">
<path d="M19.2019 11.1665C19.2019 14.6753 18.3035 17.4489 16.5048 19.485C14.8976 21.2975 12.8993 22.2027 10.5139 22.2027C7.93908 22.2027 6.08945 21.2265 4.96501 19.2743H4.88352V30.1428H0.540569V7.89623C0.540569 5.69028 0.485565 3.42628 0.379639 1.10423H4.19908L4.4415 4.37445H4.52296C5.96926 1.91049 8.16724 0.680664 11.1189 0.680664C13.4228 0.680664 15.3478 1.64173 16.8919 3.56603C18.4298 5.49247 19.2019 8.02523 19.2019 11.1665ZM14.7774 11.3342C14.7774 9.32602 14.3476 7.67048 13.488 6.36755C12.5489 5.00872 11.292 4.3293 9.70927 4.3293C8.63575 4.3293 7.66409 4.70771 6.79223 5.45377C5.92038 6.20629 5.35204 7.18887 5.08519 8.4058C4.95278 8.97341 4.88352 9.43782 4.88352 9.80333V13.2434C4.88352 14.7441 5.31945 16.0105 6.18723 17.0447C7.05908 18.0767 8.19168 18.5949 9.58909 18.5949C11.2248 18.5949 12.498 17.9284 13.4085 16.5996C14.3211 15.2688 14.7774 13.5143 14.7774 11.3342Z" fill="white"/>
</svg>
