<svg width="43" height="43" viewBox="0 0 43 43" fill="none" xmlns="http://www.w3.org/2000/svg">
<path d="M35.3716 16.5356C35.3126 9.60616 40.7474 6.23495 40.9959 6.078C37.9179 1.34154 33.1472 0.694385 31.4707 0.642785C27.4639 0.197733 23.5772 3.17334 21.5361 3.17334C19.4542 3.17334 16.3111 0.685785 12.9235 0.758885C8.56423 0.829835 4.48609 3.49369 2.24942 7.6303C-2.36651 16.0648 1.07609 28.4596 5.49849 35.2772C7.71072 38.6162 10.2957 42.3443 13.6792 42.2132C16.9894 42.0691 18.2259 39.9857 22.2205 39.9857C26.1785 39.9857 27.3396 42.2132 30.7903 42.1293C34.3429 42.0691 36.5796 38.7753 38.7144 35.4062C41.2709 31.5792 42.2976 27.8103 42.3383 27.6168C42.2548 27.5867 35.4389 24.8411 35.3716 16.5356Z" fill="white"/>
</svg>
